# File created by Blade
# Date/Time:  Tue Sep 30 19:35:54 2014
#---------------------------------------------------------
:version 1.10
:name HOM
:units
  mass 1.0
  length 1.000000
  angle deg
:documentation
     Acclaim Skeleton File
:root
   axis xyz
   order TX TY TZ RX RY RZ
   position 0.000000 0.000000 0.000000
   orientation 0 0 0
:bonedata
   begin
      id 1
      name Spine_dum
      direction 0.000000 1.000000 0.000000
      length 3.241213
      axis 0.0 0.0 0.0 xyz
   end
   begin
      id 2
      name LeftUpLeg_dum
      direction 1.000000 0.000000 0.000000
      length 3.434019
      axis 0.0 0.0 0.0 xyz
   end
   begin
      id 3
      name RightUpLeg_dum
      direction -1.000000 0.000000 0.000000
      length 3.434019
      axis 0.0 0.0 0.0 xyz
   end
   begin
      id 4
      name Spine
      direction 0.000000 1.000000 0.000000
      length 0.000000
      axis 0.0 0.0 0.0 xyz
      dof rx ry rz
   end
   begin
      id 5
      name Spine_dum1
      direction 0.000000 1.000000 0.000000
      length 18.382958
      axis 0.0 0.0 0.0 xyz
   end
   begin
      id 6
      name Spine_dum2
      direction 0.000000 1.000000 0.000000
      length 12.828261
      axis 0.0 0.0 0.0 xyz
   end
   begin
      id 7
      name Spine_dum3
      direction 0.000000 1.000000 0.000000
      length 12.828261
      axis 0.0 0.0 0.0 xyz
   end
   begin
      id 8
      name Head
      direction 0.000000 1.000000 0.000000
      length 4.527550
      axis 0.0 0.0 0.0 xyz
      dof rx ry rz
   end
   begin
      id 9
      name LeftShoulder
      direction 1.000000 0.000000 0.000000
      length 7.748055
      axis 0.0 0.0 -90.0 xyz
      dof rx ry rz
   end
   begin
      id 10
      name LeftArm
      direction 1.000000 0.000000 0.000000
      length 10.635614
      axis 0.0 0.0 -90.0 xyz
      dof rx ry rz
   end
   begin
      id 11
      name LeftForeArm
      direction 1.000000 0.000000 0.000000
      length 8.346755
      axis 0.0 0.0 -90.0 xyz
      dof ry rz rx
   end
   begin
      id 12
      name LeftHand
      direction 0.000000 0.000000 0.000000
      length 0.000000
      axis 0.0 0.0 -90.0 xyz
      dof rx ry rz
   end
   begin
      id 13
      name LeftHand_dum1
      direction 0.000000 0.000000 0.000000
      length 0.000000
      axis 0.0 0.0 -90.0 xyz
   end
   begin
      id 14
      name LeftHand_dum2
      direction 1.000000 0.000000 0.000000
      length 3.937000
      axis 0.0 0.0 -90.0 xyz
   end
   begin
      id 15
      name LeftHandThumb1
      direction 0.000000 0.000000 1.000000
      length 3.937000
      axis 0.0 0.0 -90.0 xyz
      dof rx rz ry
   end
   begin
      id 16
      name RightShoulder
      direction -1.000000 0.000000 0.000000
      length 7.748055
      axis 0.0 0.0 90.0 xyz
      dof rx ry rz
   end
   begin
      id 17
      name RightArm
      direction -1.000000 0.000000 0.000000
      length 10.635614
      axis 0.0 0.0 90.0 xyz
      dof rx ry rz
   end
   begin
      id 18
      name RightForeArm
      direction -1.000000 0.000000 0.000000
      length 8.346755
      axis 0.0 0.0 90.0 xyz
      dof ry rz rx
   end
   begin
      id 19
      name RightHand
      direction 0.000000 0.000000 0.000000
      length 0.000000
      axis 0.0 0.0 90.0 xyz
      dof rx ry rz
   end
   begin
      id 20
      name RightHand_dum1
      direction 0.000000 0.000000 0.000000
      length 0.000000
      axis 0.0 0.0 90.0 xyz
   end
   begin
      id 21
      name RightHand_dum2
      direction -1.000000 0.000000 0.000000
      length 3.937000
      axis 0.0 0.0 90.0 xyz
   end
   begin
      id 22
      name RightHandThumb1
      direction 0.000000 0.000000 1.000000
      length 3.937000
      axis 0.0 0.0 90.0 xyz
      dof rx rz ry
   end
   begin
      id 23
      name LeftUpLeg
      direction 0.000000 -1.000000 0.000000
      length 15.713025
      axis 0.0 0.0 0.0 xyz
      dof rx ry rz
   end
   begin
      id 24
      name LeftLeg
      direction 0.000000 -1.000000 0.000000
      length 14.435119
      axis 0.0 0.0 0.0 xyz
      dof rx ry rz
   end
   begin
      id 25
      name LeftFoot
      direction 0.000000 -0.258819 0.965926
      length 4.938895
      axis 15.0 0.0 0.0 xyz
      dof rx ry rz
   end
   begin
      id 26
      name LeftToeBase
      direction 0.000000 0.000000 1.000000
      length 2.952750
      axis 0.0 0.0 0.0 xyz
      dof rx ry rz
   end
   begin
      id 27
      name RightUpLeg
      direction 0.000000 -1.000000 0.000000
      length 15.713025
      axis 0.0 0.0 0.0 xyz
      dof rx ry rz
   end
   begin
      id 28
      name RightLeg
      direction 0.000000 -1.000000 0.000000
      length 14.435119
      axis 0.0 0.0 0.0 xyz
      dof rx ry rz
   end
   begin
      id 29
      name RightFoot
      direction 0.000000 -0.258819 0.965926
      length 4.938895
      axis 15.0 0.0 0.0 xyz
      dof rx ry rz
   end
   begin
      id 30
      name RightToeBase
      direction 0.000000 0.000000 1.000000
      length 2.952750
      axis 0.0 0.0 0.0 xyz
      dof rx ry rz
   end
:hierarchy
   begin
      root Spine_dum LeftUpLeg_dum RightUpLeg_dum
      Spine_dum Spine
      LeftUpLeg_dum LeftUpLeg
      RightUpLeg_dum RightUpLeg
      Spine Spine_dum1 Spine_dum2 Spine_dum3
      Spine_dum1 Head
      Spine_dum2 LeftShoulder
      Spine_dum3 RightShoulder
      LeftShoulder LeftArm
      LeftArm LeftForeArm
      LeftForeArm LeftHand
      LeftHand LeftHand_dum1 LeftHand_dum2
      LeftHand_dum1 LeftHandThumb1
      RightShoulder RightArm
      RightArm RightForeArm
      RightForeArm RightHand
      RightHand RightHand_dum1 RightHand_dum2
      RightHand_dum1 RightHandThumb1
      LeftUpLeg LeftLeg
      LeftLeg LeftFoot
      LeftFoot LeftToeBase
      RightUpLeg RightLeg
      RightLeg RightFoot
      RightFoot RightToeBase
   end

# File created by Blade
# Date/Time:  Tue Sep 23 19:15:59 2014
# Frame Rate: 120.000 fps
#------------------------------------------------------
:FULLY-SPECIFIED
:DEGREES
155
root 2.693914 32.377883 -3.567308 30.199695 -9.053214 -1.173772
Spine -29.993970 -12.325722 2.606155
Head 0.458505 -4.800468 6.999169
LeftShoulder -8.108687 46.251463 17.731663
LeftArm 66.633300 27.683177 -57.063635
LeftForeArm 49.407220 -0.000000 10.120101
LeftHand 23.819154 0.000000 36.839254
LeftHandThumb1 -26.253704 0.000000 33.147579
RightShoulder -10.471720 -51.789487 -8.189226
RightArm 66.574232 -19.859784 62.126356
RightForeArm 22.552470 -0.000000 21.377872
RightHand 13.469568 -0.000000 1.759348
RightHandThumb1 -24.326973 -0.000000 -32.862282
LeftUpLeg -32.130098 -0.303909 -3.430627
LeftLeg 8.759436 -0.000000 -0.000000
LeftFoot -8.092710 5.722497 4.386067
LeftToeBase 2.136207 -0.000000 -0.000000
RightUpLeg -76.536122 2.300940 -3.076152
RightLeg 75.017935 -0.000000 -0.000000
RightFoot 17.833443 -9.305519 15.272990
RightToeBase 26.758972 -0.000000 -0.000000
156
root 2.710270 32.391562 -3.594310 30.178546 -9.062121 -1.446822
Spine -29.976469 -12.399987 2.952602
Head 0.722061 -4.724027 6.773521
LeftShoulder -8.023823 46.221146 17.746312
LeftArm 66.503905 27.338333 -57.816847
LeftForeArm 50.096262 -0.000000 9.926515
LeftHand 23.786507 -0.000000 37.248017
LeftHandThumb1 -26.253704 0.000000 33.147579
RightShoulder -10.386508 -51.826860 -8.292306
RightArm 66.334777 -19.517591 62.621388
RightForeArm 22.307555 -0.000000 21.756670
RightHand 13.417721 0.000000 1.927326
RightHandThumb1 -24.326973 -0.000000 -32.862282
LeftUpLeg -32.150518 -0.137184 -3.261085
LeftLeg 8.796204 -0.000000 -0.000000
LeftFoot -8.029553 5.802356 4.713343
LeftToeBase 2.021270 -0.000000 -0.000000
RightUpLeg -77.814247 2.183911 -2.736010
RightLeg 76.762628 -0.000000 -0.000000
RightFoot 17.962989 -8.998514 14.687675
RightToeBase 27.283842 -0.000000 -0.000000
157
root 2.727112 32.404025 -3.613594 30.098850 -9.082805 -1.731717
Spine -29.905226 -12.454353 3.311491
Head 0.974638 -4.651039 6.517105
LeftShoulder -8.032329 46.192469 17.658826
LeftArm 66.634224 27.347052 -57.549850
LeftForeArm 49.771509 -0.000000 10.281051
LeftHand 23.337348 0.000000 37.358288
LeftHandThumb1 -26.253704 0.000000 33.147579
RightShoulder -10.261069 -51.825000 -8.442722
RightArm 66.024309 -19.209643 63.149328
RightForeArm 22.000097 -0.000000 22.196481
RightHand 13.321103 0.000000 1.905881
RightHandThumb1 -24.326973 -0.000000 -32.862282
LeftUpLeg -32.092837 0.033376 -3.086132
LeftLeg 8.831397 -0.000000 -0.000000
LeftFoot -7.913407 5.884936 5.214956
LeftToeBase 1.723267 -0.000000 -0.000000
RightUpLeg -79.008635 2.128735 -2.452262
RightLeg 78.483810 -0.000000 -0.000000
RightFoot 17.965754 -8.755515 14.456284
RightToeBase 27.921001 -0.000000 -0.000000
158
root 2.742047 32.419266 -3.633974 30.042461 -9.118547 -2.035836
Spine -29.848252 -12.446070 3.643047
Head 1.222900 -4.611384 6.311391
LeftShoulder -7.975915 46.135275 17.658785
LeftArm 66.707765 27.292897 -57.599141
LeftForeArm 49.983737 0.000000 10.416035
LeftHand 22.886741 -0.000000 37.823337
LeftHandThumb1 -26.253704 0.000000 33.147579
RightShoulder -10.183153 -51.861850 -8.524592
RightArm 65.731745 -18.832093 63.685889
RightForeArm 21.881571 -0.000000 22.592428
RightHand 13.229538 -0.000000 2.156011
RightHandThumb1 -24.326973 -0.000000 -32.862282
LeftUpLeg -32.073709 0.213234 -2.888357
LeftLeg 8.900259 -0.000000 -0.000000
LeftFoot -7.904969 5.943489 5.399419
LeftToeBase 1.735297 -0.000000 -0.000000
RightUpLeg -80.210970 2.129990 -2.200211
RightLeg 80.166337 -0.000000 -0.000000
RightFoot 18.026374 -8.354913 14.378453
RightToeBase 28.231442 -0.000000 -0.000000
159
root 2.755235 32.434442 -3.654400 29.956238 -9.170742 -2.370335
Spine -29.741877 -12.412855 3.969190
Head 1.438250 -4.554945 6.170200
LeftShoulder -7.917790 46.042135 17.698407
LeftArm 66.599353 27.078312 -58.285825
LeftForeArm 50.795476 -0.000000 10.328533
LeftHand 22.596272 -0.000000 38.314598
LeftHandThumb1 -26.253704 0.000000 33.147579
RightShoulder -10.114158 -51.898355 -8.566615
RightArm 65.529244 -18.506368 63.974226
RightForeArm 21.915708 -0.000000 22.991451
RightHand 13.210888 0.000000 2.200950
RightHandThumb1 -24.326973 -0.000000 -32.862282
LeftUpLeg -32.030268 0.400774 -2.657971
LeftLeg 9.000828 -0.000000 -0.000000
LeftFoot -7.869699 6.025112 5.595428
LeftToeBase 1.585947 -0.000000 -0.000000
RightUpLeg -81.349601 2.144266 -1.911897
RightLeg 81.752271 -0.000000 -0.000000
RightFoot 18.245757 -8.201528 14.278131
RightToeBase 28.978194 -0.000000 -0.000000
160
root 2.769503 32.449534 -3.679809 29.944160 -9.094535 -2.698252
Spine -29.707226 -12.459061 4.375813
Head 1.629119 -4.542734 5.995182
LeftShoulder -7.874028 45.982263 17.720654
LeftArm 66.745900 27.151364 -58.101119
LeftForeArm 50.501703 -0.000000 10.722567
LeftHand 22.158149 0.000000 38.534568
LeftHandThumb1 -26.253704 0.000000 33.147579
RightShoulder -10.041706 -51.946083 -8.618989
RightArm 65.300784 -18.119205 64.390524
RightForeArm 21.733322 0.000000 23.387728
RightHand 13.165625 -0.000000 2.297920
RightHandThumb1 -24.326973 -0.000000 -32.862282
LeftUpLeg -32.115034 0.405995 -2.336031
LeftLeg 9.165628 -0.000000 -0.000000
LeftFoot -7.831927 6.195736 5.887602
LeftToeBase 1.483306 -0.000000 -0.000000
RightUpLeg -82.536410 2.038773 -1.555962
RightLeg 83.306779 -0.000000 -0.000000
RightFoot 18.785254 -7.851015 13.638071
RightToeBase 29.583858 -0.000000 -0.000000
161
root 2.779366 32.463954 -3.696209 29.857345 -9.159601 -3.047977
Spine -29.589487 -12.403923 4.695329
Head 1.797074 -4.495918 5.898059
LeftShoulder -7.901182 45.983141 17.731384
LeftArm 66.858054 27.107324 -58.211601
LeftForeArm 50.450902 -0.000000 11.019024
LeftHand 21.973397 -0.000000 38.560162
LeftHandThumb1 -26.253704 0.000000 33.147579
RightShoulder -9.958491 -51.985231 -8.648873
RightArm 65.107993 -17.774340 64.668015
RightForeArm 21.574456 -0.000000 23.777184
RightHand 13.088972 0.000000 2.254309
RightHandThumb1 -24.326973 -0.000000 -32.862282
LeftUpLeg -32.068808 0.541875 -2.054344
LeftLeg 9.283895 -0.000000 -0.000000
LeftFoot -7.827168 6.360946 6.207860
LeftToeBase 1.414358 -0.000000 -0.000000
RightUpLeg -83.648342 2.077409 -1.261562
RightLeg 84.842321 -0.000000 -0.000000
RightFoot 19.354964 -7.572120 13.323905
RightToeBase 30.284470 -0.000000 -0.000000
162
root 2.783853 32.479909 -3.711721 29.734931 -9.251594 -3.441064
Spine -29.412801 -12.279219 4.986054
Head 1.966522 -4.513899 5.864464
LeftShoulder -7.856224 45.964166 17.769996
LeftArm 67.003417 27.101385 -58.161948
LeftForeArm 50.836114 -0.000000 11.346009
LeftHand 21.298554 0.000000 39.112328
LeftHandThumb1 -26.253704 0.000000 33.147579
RightShoulder -9.936730 -52.024844 -8.567379
RightArm 64.906037 -17.399120 64.924352
RightForeArm 21.305515 0.000000 24.166673
RightHand 13.093606 -0.000000 2.225850
RightHandThumb1 -24.326973 -0.000000 -32.862282
LeftUpLeg -31.980583 0.740324 -1.743264
LeftLeg 9.418247 -0.000000 -0.000000
LeftFoot -7.846210 6.500064 6.511005
LeftToeBase 1.336106 -0.000000 -0.000000
RightUpLeg -84.675938 2.232846 -1.013859
RightLeg 86.279448 -0.000000 -0.000000
RightFoot 19.972612 -7.500492 13.121464
RightToeBase 30.893036 -0.000000 -0.000000
163
root 2.792215 32.492881 -3.727162 29.618957 -9.369763 -3.771209
Spine -29.241211 -12.144798 5.204746
Head 2.079723 -4.566355 5.837192
LeftShoulder -7.826073 45.959365 17.826685
LeftArm 67.165547 27.087079 -58.152350
LeftForeArm 50.537810 -0.000000 11.758887
LeftHand 21.244907 0.000000 39.016253
LeftHandThumb1 -26.253704 0.000000 33.147579
RightShoulder -9.916077 -52.038098 -8.494379
RightArm 64.699601 -17.040931 65.170543
RightForeArm 21.093212 -0.000000 24.575659
RightHand 13.060172 -0.000000 2.150848
RightHandThumb1 -24.326973 -0.000000 -32.862282
LeftUpLeg -31.906438 0.853979 -1.477584
LeftLeg 9.548068 -0.000000 -0.000000
LeftFoot -7.790010 6.786685 6.878927
LeftToeBase 1.109101 -0.000000 -0.000000
RightUpLeg -85.730405 2.346031 -0.809704
RightLeg 87.714766 -0.000000 -0.000000
RightFoot 20.767232 -7.264424 12.926505
RightToeBase 31.466822 -0.000000 -0.000000
164
root 2.805010 32.504953 -3.743188 29.530434 -9.446664 -4.074931
Spine -29.104263 -12.078233 5.462111
Head 2.159840 -4.581889 5.788350
LeftShoulder -7.828468 45.940527 17.866150
LeftArm 67.296101 27.024327 -58.328281
LeftForeArm 50.961278 -0.000000 11.991595
LeftHand 21.010183 -0.000000 39.348333
LeftHandThumb1 -26.253704 0.000000 33.147579
RightShoulder -9.822792 -52.056880 -8.498456
RightArm 64.555267 -16.692218 65.326267
RightForeArm 20.882756 0.000000 24.913287
RightHand 13.052265 -0.000000 2.180541
RightHandThumb1 -24.326973 -0.000000 -32.862282
LeftUpLeg -31.881725 0.822087 -1.173876
LeftLeg 9.720862 -0.000000 -0.000000
LeftFoot -7.829671 7.149132 7.082500
LeftToeBase 1.217992 -0.000000 -0.000000
RightUpLeg -86.786416 2.418089 -0.646397
RightLeg 89.111831 -0.000000 -0.000000
RightFoot 21.553814 -7.076154 12.720475
RightToeBase 31.975711 -0.000000 -0.000000
165
root 2.826362 32.515093 -3.770936 29.597347 -9.344456 -4.347914
Spine -29.115319 -12.101746 5.833521
Head 2.194085 -4.627829 5.693338
LeftShoulder -7.754135 45.866159 17.932768
LeftArm 67.487509 27.088714 -58.160121
LeftForeArm 51.246217 -0.000000 12.493874
LeftHand 20.545552 -0.000000 39.585067
LeftHandThumb1 -26.253704 0.000000 33.147579
RightShoulder -9.821476 -52.068925 -8.489940
RightArm 64.457908 -16.361394 65.457770
RightForeArm 20.650503 -0.000000 25.285513
RightHand 12.988383 -0.000000 1.998166
RightHandThumb1 -24.326973 -0.000000 -32.862282
LeftUpLeg -32.092109 0.539706 -0.787825
LeftLeg 9.963099 -0.000000 -0.000000
LeftFoot -7.802596 7.582830 7.292200
LeftToeBase 1.287650 -0.000000 -0.000000
RightUpLeg -88.013473 2.324264 -0.464469
RightLeg 90.492351 -0.000000 -0.000000
RightFoot 22.313156 -6.931978 12.690380
RightToeBase 32.566677 -0.000000 -0.000000
166
root 2.838204 32.525109 -3.788959 29.605804 -9.522447 -4.629265
Spine -29.069704 -11.928510 6.013830
Head 2.253264 -4.671619 5.679426
LeftShoulder -7.718908 45.888903 18.019126
LeftArm 67.705962 27.036283 -58.201489
LeftForeArm 51.938930 -0.000000 12.809914
LeftHand 20.218697 -0.000000 39.944482
LeftHandThumb1 -26.253704 0.000000 33.147579
RightShoulder -9.787284 -52.134521 -8.432590
RightArm 64.379117 -15.995615 65.594927
RightForeArm 20.344933 -0.000000 25.618450
RightHand 12.984393 -0.000000 2.050533
RightHandThumb1 -24.326973 -0.000000 -32.862282
LeftUpLeg -32.154028 0.611127 -0.562184
LeftLeg 10.126833 -0.000000 -0.000000
LeftFoot -7.823947 7.890422 7.479167
LeftToeBase 1.316326 -0.000000 -0.000000
RightUpLeg -89.177611 2.436696 -0.344508
RightLeg 91.831921 -0.000000 -0.000000
RightFoot 23.127095 -6.700981 12.509373
RightToeBase 32.838164 -0.000000 -0.000000
